<?xml version="1.0" encoding="iso-8859-1"?>
<!-- Generator: Adobe Illustrator 19.0.0, SVG Export Plug-In . SVG Version: 6.00 Build 0)  -->
<svg version="1.1" id="Capa_1" xmlns="http://www.w3.org/2000/svg" xmlns:xlink="http://www.w3.org/1999/xlink" x="0px" y="0px"
	 viewBox="0 0 330.948 330.948" style="enable-background:new 0 0 330.948 330.948;" xml:space="preserve">
<g transform="translate(1 1)">
	<g>
		<path style="fill:#FFE100;" d="M284.64,92.759c0-32.498,15.683-61.255,39.813-79.372c-7.387-2.162-15.182-3.376-23.263-3.376
			c-38.626,0-70.97,26.501-80.094,62.281c31.24,13.615,53.256,45.213,53.731,81.147c14.216,2.676,26.716,10.542,35.625,21.481
			c4.794-0.551,9.477-1.467,14.001-2.791C300.324,154.015,284.64,125.257,284.64,92.759"/>
		<path style="fill:#FFE100;" d="M247.213,164.453c-2.671,0-5.013-1.95-5.426-4.671c-0.456-3,1.607-5.802,4.607-6.258
			c14.271-2.167,28.625-0.092,29.229-0.003c3.002,0.444,5.076,3.238,4.631,6.24c-0.443,3.002-3.243,5.075-6.237,4.632
			c-0.201-0.03-13.41-1.912-25.972-0.003C247.766,164.432,247.488,164.453,247.213,164.453z"/>
		<path style="fill:#FFE100;" d="M131.375,153.42c-3.035,0-5.495-2.46-5.495-5.495c0-21.305-17.332-38.637-38.637-38.637
			s-38.637,17.332-38.637,38.637c0,3.035-2.46,5.495-5.495,5.495c-3.035,0-5.495-2.46-5.495-5.495
			c0-27.364,22.263-49.627,49.627-49.627s49.627,22.263,49.627,49.627C136.87,150.959,134.409,153.42,131.375,153.42z"/>
	</g>
	<path id="SVGCleanerId_0" style="fill:#FFE100;" d="M263.77,285.816c-3.035,0-5.495-2.46-5.495-5.495
		c0-3.034,2.46-5.495,5.495-5.495c30.43,0,55.187-24.826,55.187-55.341c0-26.579-19.409-50.278-45.148-55.127
		c-2.57-0.484-4.443-2.713-4.477-5.328c-0.604-45.679-37.536-82.842-82.329-82.842c-27.629,0-55.412,14.923-70.781,38.019
		c-1.68,2.524-5.087,3.211-7.614,1.533c-6.357-4.221-13.745-6.452-21.365-6.452c-21.305,0-38.637,17.332-38.637,38.637
		c0,0.39,0.031,0.852,0.065,1.341c0.02,0.29,0.039,0.581,0.055,0.872c0.01,0.187,0.01,0.374,0.001,0.56l-0.046,0.848
		c-0.038,0.679-0.074,1.322-0.074,1.895c0,2.115-1.213,4.04-3.119,4.955c-20.567,9.859-35.495,33.656-35.495,56.58
		c0,34.119,23.725,59.848,55.187,59.848c3.035,0,5.495,2.46,5.495,5.495c0,3.035-2.46,5.495-5.495,5.495
		C27.45,285.816-1,255.362-1,214.978c0-26.228,15.765-52.434,38.707-64.941c-0.001-0.009-0.001-0.017-0.002-0.027
		c-0.042-0.62-0.09-1.323-0.09-2.085c0-27.364,22.263-49.627,49.627-49.627c8,0,15.799,1.913,22.839,5.571
		c8.131-10.815,18.782-19.991,31.067-26.72c14.273-7.818,30.13-11.951,45.855-11.951c24.652,0,47.962,9.862,65.638,27.771
		c16.491,16.709,26.168,38.426,27.523,61.56c13.247,3.47,25.288,11.196,34.267,22.07c10.006,12.119,15.516,27.349,15.516,42.885
		C329.947,256.06,300.26,285.816,263.77,285.816z"/>
	<path style="fill:#FFE100;" d="M142.18,88.402c-2.795,0-5.185-2.122-5.463-4.962c-1.937-19.859-18.464-34.835-38.442-34.835
		c-7.63,0-15.016,2.232-21.36,6.455c-1.213,0.807-2.698,1.101-4.126,0.813c-1.429-0.287-2.685-1.13-3.493-2.343
		C52.507,28.3,30.704,15.506,4.495,15.506C1.46,15.506-1,13.046-1,10.011s2.46-5.495,5.495-5.495
		c28.148,0,52.592,13.339,70.979,38.652c7.022-3.646,14.808-5.552,22.801-5.552c12.404,0,24.278,4.602,33.434,12.958
		c9.092,8.298,14.756,19.592,15.946,31.8c0.295,3.02-1.915,5.708-4.936,6.002C142.539,88.393,142.359,88.402,142.18,88.402z"/>
	<g>
		<path id="SVGCleanerId_0_1_" style="fill:#FFE100;" d="M263.77,285.816c-3.035,0-5.495-2.46-5.495-5.495
			c0-3.034,2.46-5.495,5.495-5.495c30.43,0,55.187-24.826,55.187-55.341c0-26.579-19.409-50.278-45.148-55.127
			c-2.57-0.484-4.443-2.713-4.477-5.328c-0.604-45.679-37.536-82.842-82.329-82.842c-27.629,0-55.412,14.923-70.781,38.019
			c-1.68,2.524-5.087,3.211-7.614,1.533c-6.357-4.221-13.745-6.452-21.365-6.452c-21.305,0-38.637,17.332-38.637,38.637
			c0,0.39,0.031,0.852,0.065,1.341c0.02,0.29,0.039,0.581,0.055,0.872c0.01,0.187,0.01,0.374,0.001,0.56l-0.046,0.848
			c-0.038,0.679-0.074,1.322-0.074,1.895c0,2.115-1.213,4.04-3.119,4.955c-20.567,9.859-35.495,33.656-35.495,56.58
			c0,34.119,23.725,59.848,55.187,59.848c3.035,0,5.495,2.46,5.495,5.495c0,3.035-2.46,5.495-5.495,5.495
			C27.45,285.816-1,255.362-1,214.978c0-26.228,15.765-52.434,38.707-64.941c-0.001-0.009-0.001-0.017-0.002-0.027
			c-0.042-0.62-0.09-1.323-0.09-2.085c0-27.364,22.263-49.627,49.627-49.627c8,0,15.799,1.913,22.839,5.571
			c8.131-10.815,18.782-19.991,31.067-26.72c14.273-7.818,30.13-11.951,45.855-11.951c24.652,0,47.962,9.862,65.638,27.771
			c16.491,16.709,26.168,38.426,27.523,61.56c13.247,3.47,25.288,11.196,34.267,22.07c10.006,12.119,15.516,27.349,15.516,42.885
			C329.947,256.06,300.26,285.816,263.77,285.816z"/>
	</g>
	<g>
		<path style="fill:#FFE100;" d="M120.341,329.948c-3.035,0-5.495-2.46-5.495-5.495v-49.649c0-3.035,2.46-5.495,5.495-5.495
			c3.035,0,5.495,2.46,5.495,5.495v49.649C125.836,327.488,123.377,329.948,120.341,329.948z"/>
		<path style="fill:#FFE100;" d="M147.918,324.431c-0.962,0-1.937-0.253-2.822-0.784l-55.165-33.098
			c-2.602-1.562-3.446-4.937-1.885-7.539c1.561-2.602,4.936-3.447,7.539-1.885l55.165,33.098c2.602,1.562,3.446,4.937,1.885,7.539
			C151.606,323.48,149.785,324.431,147.918,324.431z"/>
		<path style="fill:#FFE100;" d="M92.765,324.431c-1.867,0-3.687-0.952-4.717-2.669c-1.562-2.602-0.718-5.977,1.885-7.539
			l55.165-33.098c2.603-1.561,5.978-0.716,7.539,1.885c1.562,2.602,0.718,5.977-1.885,7.539l-55.165,33.098
			C94.701,324.179,93.726,324.431,92.765,324.431z"/>
		<path style="fill:#FFE100;" d="M208.605,274.783c-3.035,0-5.495-2.46-5.495-5.495v-55.165c0-3.035,2.46-5.495,5.495-5.495
			c3.035,0,5.495,2.46,5.495,5.495v55.165C214.1,272.322,211.64,274.783,208.605,274.783z"/>
		<path style="fill:#FFE100;" d="M236.183,263.75c-0.962,0-1.937-0.253-2.822-0.784l-55.165-33.099
			c-2.602-1.562-3.446-4.937-1.885-7.539c1.562-2.602,4.938-3.446,7.539-1.885l55.165,33.099c2.602,1.562,3.446,4.937,1.885,7.539
			C239.87,262.798,238.049,263.75,236.183,263.75z"/>
		<path style="fill:#FFE100;" d="M181.028,263.75c-1.867,0-3.687-0.952-4.717-2.669c-1.561-2.602-0.717-5.977,1.885-7.539
			l55.165-33.099c2.603-1.561,5.978-0.717,7.539,1.885c1.561,2.602,0.717,5.977-1.885,7.539l-55.165,33.099
			C182.964,263.498,181.99,263.75,181.028,263.75z"/>
	</g>
	<path d="M247.213,158.937c-2.67,0-5.013-1.95-5.426-4.671c-0.456-3,1.606-5.802,4.607-6.258
		c14.269-2.166,28.625-0.092,29.229-0.003c3.003,0.444,5.076,3.238,4.631,6.24c-0.445,3.002-3.236,5.076-6.238,4.632
		c-0.202-0.03-13.407-1.912-25.972-0.003C247.766,158.916,247.488,158.937,247.213,158.937z"/>
	<path d="M131.375,147.903c-3.035,0-5.495-2.46-5.495-5.495c0-21.305-17.332-38.637-38.637-38.637s-38.637,17.332-38.637,38.637
		c0,3.035-2.46,5.495-5.495,5.495c-3.035,0-5.495-2.46-5.495-5.495c0-27.364,22.263-49.627,49.627-49.627
		s49.627,22.263,49.627,49.627C136.87,145.442,134.409,147.903,131.375,147.903z"/>
	<path id="SVGCleanerId_1" d="M263.77,280.299c-3.035,0-5.495-2.46-5.495-5.495c0-3.035,2.46-5.495,5.495-5.495
		c30.43,0,55.187-24.826,55.187-55.341c0-26.579-19.409-50.278-45.148-55.127l-4.418-0.832l-0.059-4.496
		c-0.604-45.679-37.536-82.842-82.329-82.842c-27.629,0-55.412,14.923-70.781,38.019l-3.041,4.57l-4.573-3.036
		c-6.357-4.221-13.745-6.453-21.365-6.453c-21.305,0-38.637,17.332-38.637,38.637c0,0.39,0.031,0.853,0.065,1.342
		c0.02,0.29,0.039,0.581,0.055,0.872l0.015,0.281l-0.059,1.127c-0.038,0.679-0.074,1.322-0.074,1.895v3.459l-3.119,1.495
		c-20.568,9.86-35.496,33.656-35.496,56.581c0,34.118,23.725,59.848,55.187,59.848c3.035,0,5.495,2.46,5.495,5.495
		c0,3.034-2.46,5.495-5.495,5.495C27.45,280.299-1,249.845-1,209.461c0-26.228,15.765-52.435,38.707-64.941
		c-0.001-0.009-0.001-0.017-0.002-0.027c-0.042-0.62-0.09-1.323-0.09-2.086c0-27.364,22.263-49.627,49.627-49.627
		c7.999,0,15.798,1.914,22.839,5.571c8.131-10.815,18.782-19.991,31.067-26.72c14.273-7.818,30.13-11.951,45.855-11.951
		c24.652,0,47.962,9.862,65.638,27.771c16.491,16.709,26.168,38.426,27.523,61.56c13.247,3.47,25.288,11.196,34.267,22.07
		c10.006,12.119,15.516,27.349,15.516,42.885C329.947,250.543,300.26,280.299,263.77,280.299z"/>
	<path d="M142.18,82.885c-2.795,0-5.185-2.122-5.463-4.962c-1.937-19.859-18.464-34.835-38.442-34.835
		c-7.63,0-15.017,2.232-21.36,6.454c-1.213,0.807-2.698,1.1-4.126,0.813c-1.429-0.287-2.685-1.13-3.493-2.343
		C52.507,22.783,30.704,9.99,4.495,9.99C1.46,9.99-1,7.53-1,4.495S1.46-1,4.495-1c28.148,0,52.592,13.339,70.979,38.651
		c7.022-3.645,14.807-5.552,22.801-5.552c12.404,0,24.278,4.602,33.434,12.958c9.092,8.298,14.756,19.592,15.946,31.799
		c0.295,3.02-1.915,5.708-4.936,6.002C142.539,82.877,142.359,82.885,142.18,82.885z"/>
	<g>
		<path id="SVGCleanerId_1_1_" d="M263.77,280.299c-3.035,0-5.495-2.46-5.495-5.495c0-3.035,2.46-5.495,5.495-5.495
			c30.43,0,55.187-24.826,55.187-55.341c0-26.579-19.409-50.278-45.148-55.127l-4.418-0.832l-0.059-4.496
			c-0.604-45.679-37.536-82.842-82.329-82.842c-27.629,0-55.412,14.923-70.781,38.019l-3.041,4.57l-4.573-3.036
			c-6.357-4.221-13.745-6.453-21.365-6.453c-21.305,0-38.637,17.332-38.637,38.637c0,0.39,0.031,0.853,0.065,1.342
			c0.02,0.29,0.039,0.581,0.055,0.872l0.015,0.281l-0.059,1.127c-0.038,0.679-0.074,1.322-0.074,1.895v3.459l-3.119,1.495
			c-20.568,9.86-35.496,33.656-35.496,56.581c0,34.118,23.725,59.848,55.187,59.848c3.035,0,5.495,2.46,5.495,5.495
			c0,3.034-2.46,5.495-5.495,5.495C27.45,280.299-1,249.845-1,209.461c0-26.228,15.765-52.435,38.707-64.941
			c-0.001-0.009-0.001-0.017-0.002-0.027c-0.042-0.62-0.09-1.323-0.09-2.086c0-27.364,22.263-49.627,49.627-49.627
			c7.999,0,15.798,1.914,22.839,5.571c8.131-10.815,18.782-19.991,31.067-26.72c14.273-7.818,30.13-11.951,45.855-11.951
			c24.652,0,47.962,9.862,65.638,27.771c16.491,16.709,26.168,38.426,27.523,61.56c13.247,3.47,25.288,11.196,34.267,22.07
			c10.006,12.119,15.516,27.349,15.516,42.885C329.947,250.543,300.26,280.299,263.77,280.299z"/>
	</g>
	<path d="M310.451,180.418c-1.641,0-3.21-0.736-4.26-2.025c-8.346-10.249-19.846-17.192-32.381-19.551
		c-2.57-0.484-4.444-2.713-4.478-5.328c-0.437-33.118-20.232-63.022-50.431-76.183c-2.47-1.076-3.795-3.784-3.13-6.395
		c9.973-39.105,45.099-66.418,85.419-66.418c8.306,0,16.653,1.21,24.806,3.597c1.996,0.584,3.491,2.246,3.863,4.292
		s-0.444,4.127-2.107,5.376c-23.906,17.949-37.616,45.278-37.616,74.977c0,29.701,13.711,57.029,37.616,74.976
		c1.663,1.25,2.479,3.33,2.107,5.376c-0.372,2.047-1.867,3.707-3.863,4.293c-4.709,1.378-9.727,2.38-14.916,2.976
		C310.87,180.405,310.661,180.418,310.451,180.418z M280.164,149.012c9.314,2.439,18.025,6.985,25.502,13.256
		c-5.926-6.653-11.011-14.039-15.057-21.922c-7.607-14.822-11.464-30.832-11.464-47.588s3.857-32.766,11.464-47.588
		c5.505-10.726,12.937-20.534,21.791-28.827c-3.731-0.557-7.476-0.838-11.21-0.838c-33.776,0-63.39,21.902-73.524,53.792
		c14.595,7.283,27.111,18.316,36.394,32.134C273.636,115.687,279.162,132.053,280.164,149.012z"/>
	<path d="M120.341,329.948c-3.035,0-5.495-2.46-5.495-5.495v-55.165c0-3.034,2.46-5.495,5.495-5.495c3.035,0,5.495,2.46,5.495,5.495
		v55.165C125.836,327.488,123.377,329.948,120.341,329.948z"/>
	<path d="M147.918,318.915c-0.962,0-1.937-0.253-2.822-0.784l-55.165-33.098c-2.602-1.562-3.446-4.937-1.885-7.539
		c1.561-2.602,4.936-3.446,7.539-1.885l55.165,33.098c2.602,1.562,3.446,4.937,1.885,7.539
		C151.606,317.963,149.785,318.915,147.918,318.915z"/>
	<path d="M92.765,318.915c-1.867,0-3.687-0.952-4.717-2.669c-1.562-2.602-0.718-5.977,1.885-7.539l55.165-33.098
		c2.603-1.561,5.978-0.716,7.539,1.885c1.562,2.602,0.718,5.977-1.885,7.539l-55.165,33.098
		C94.701,318.663,93.726,318.915,92.765,318.915z"/>
	<path d="M208.605,269.266c-3.035,0-5.495-2.46-5.495-5.495v-55.165c0-3.035,2.46-5.495,5.495-5.495c3.035,0,5.495,2.46,5.495,5.495
		v55.165C214.1,266.806,211.64,269.266,208.605,269.266z"/>
	<path d="M236.183,258.234c-0.962,0-1.937-0.253-2.822-0.784l-55.165-33.099c-2.602-1.562-3.446-4.937-1.885-7.539
		c1.562-2.602,4.938-3.446,7.539-1.885l55.165,33.099c2.602,1.562,3.446,4.937,1.885,7.539
		C239.87,257.282,238.049,258.234,236.183,258.234z"/>
	<path d="M181.028,258.234c-1.867,0-3.687-0.952-4.717-2.669c-1.561-2.602-0.717-5.977,1.885-7.539l55.165-33.099
		c2.603-1.561,5.978-0.717,7.539,1.885c1.561,2.602,0.717,5.977-1.885,7.539l-55.165,33.099
		C182.964,257.981,181.99,258.234,181.028,258.234z"/>
</g>
<g>
</g>
<g>
</g>
<g>
</g>
<g>
</g>
<g>
</g>
<g>
</g>
<g>
</g>
<g>
</g>
<g>
</g>
<g>
</g>
<g>
</g>
<g>
</g>
<g>
</g>
<g>
</g>
<g>
</g>
</svg>
